<?xml version="1.0" encoding="utf-8"?>
<!-- Generator: Adobe Illustrator 18.0.0, SVG Export Plug-In . SVG Version: 6.00 Build 0)  -->
<!DOCTYPE svg PUBLIC "-//W3C//DTD SVG 1.1//EN" "http://www.w3.org/Graphics/SVG/1.1/DTD/svg11.dtd">
<svg version="1.1" id="Capa_1" xmlns="http://www.w3.org/2000/svg" xmlns:xlink="http://www.w3.org/1999/xlink" x="0px" y="0px"
	 viewBox="0 0 2500 2500" enable-background="new 0 0 2500 2500" xml:space="preserve">
<g>
	<path fill="#F2CE54" d="M2133.9,366.5C1897.9,130.7,1584,0.5,1250.1,0c-0.7,0-1.3,0-2,0c-289.2,0-571,101-793.6,284.5
		c-21.7,17.9-24.8,49.9-6.9,71.6s49.9,24.8,71.6,6.9C723.6,194.5,982.3,101.7,1248,101.7c0.6,0,1.2,0,1.8,0
		c633.2,1,1148.3,516.1,1148.3,1148.2c0,633.1-515.1,1148.2-1148.2,1148.2c-632.4,0-1147.6-515.1-1148.3-1148.3
		c-0.2-133.9,22.5-265,67.3-389.7c9.5-26.4-4.2-55.6-30.7-65.1c-26.4-9.5-55.6,4.2-65.1,30.7C24.5,961.6-0.2,1104.4,0,1250.1
		C0.8,1939.3,561.5,2500,1250,2500c689.3,0,1250-560.7,1250-1250C2500,916.2,2370,602.5,2133.9,366.5z"/>
	<path fill="#F2CE54" d="M1617.8,398.5c-116.3-50.3-240.1-75.8-367.8-75.8c-511.3,0-927.3,416-927.3,927.3s416,927.3,927.3,927.3
		s927.3-416,927.3-927.3c0-28.1-22.8-50.9-50.9-50.9h-186.1c-28.1,0-50.9,22.8-50.9,50.9s22.8,50.9,50.9,50.9H2074
		c-25.3,414.8-358.3,747.8-773.1,773.1v-133.6c0-28.1-22.8-50.9-50.9-50.9s-50.9,22.8-50.9,50.9V2074
		c-414.8-25.3-747.8-358.3-773.1-773.1h133.6c28.1,0,50.9-22.8,50.9-50.9s-22.8-50.9-50.9-50.9H426
		c25.3-414.8,358.3-747.8,773.1-773.1v133.6c0,28.1,22.8,50.9,50.9,50.9s50.9-22.8,50.9-50.9V426c95.8,5.8,188.6,27.8,276.6,65.9
		c25.8,11.2,55.7-0.7,66.9-26.5C1655.5,439.6,1643.6,409.7,1617.8,398.5z"/>
	<path fill="#F2CE54" d="M1611.1,823.3l-450.2,182.4c-35.1,12.8-67.2,33.2-94.4,60.4c-23.3,23.3-41.2,50-53.8,78.4
		c-1.3,2.2-2.5,4.4-3.4,6.8l-186.4,460.3c-7.7,18.9-3.3,40.6,11.2,55.1c9.7,9.7,22.7,14.9,36,14.9c6.4,0,12.9-1.2,19.1-3.7
		l460.4-186.4c2.2-0.9,4.3-2,6.3-3.2c29-12.8,55.8-31,78.9-54.1c24.6-24.6,43.2-53,55.9-83.3c0.2-0.4,0.4-0.7,0.5-1l186.4-460.4
		c7.7-18.9,3.3-40.6-11.2-55.1C1651.7,820,1630,815.6,1611.1,823.3z M1250.4,1091.6c42.4,0,82.2,16.5,112.1,46.4
		c61.8,61.8,61.8,162.4,0,224.3c-29.9,29.9-69.8,46.4-112.1,46.4s-82.2-16.5-112.1-46.4c-61.8-61.8-61.8-162.4,0-224.3
		c14.6-14.6,31.5-25.9,50-33.8c0.2-0.1,0.4-0.1,0.7-0.2l3.7-1.5C1210.8,1095.4,1230.3,1091.6,1250.4,1091.6z M1025.7,1381.5
		c11,18.8,24.5,36.6,40.7,52.7c16,16,33.7,29.6,52.7,40.7l-156.9,63.5L1025.7,1381.5z M1474.9,1118.3c-11-18.7-24.4-36.2-40.4-52.2
		c-15.8-15.8-33.3-29.3-52.1-40.4l155.5-63L1474.9,1118.3z"/>
</g>
</svg>
