<?xml version="1.0" encoding="utf-8"?>
<!-- Generator: Adobe Illustrator 18.0.0, SVG Export Plug-In . SVG Version: 6.00 Build 0)  -->
<!DOCTYPE svg PUBLIC "-//W3C//DTD SVG 1.1//EN" "http://www.w3.org/Graphics/SVG/1.1/DTD/svg11.dtd">
<svg version="1.1" id="Capa_1" xmlns="http://www.w3.org/2000/svg" xmlns:xlink="http://www.w3.org/1999/xlink" x="0px" y="0px"
	 viewBox="0 0 2500 2500" enable-background="new 0 0 2500 2500" xml:space="preserve">
<g>
	<path fill="#F2CE54" d="M664.3,763.5c-169.8,0-319.5,87.6-406.6,219.8H51.2C23,983.3,0,1006.2,0,1034.5c0,28.2,22.9,51.2,51.2,51.2
		h155.3c-18.5,51.4-28.6,106.7-28.6,164.3c0,268.2,218.2,486.5,486.5,486.5s486.5-218.2,486.5-486.5S932.5,763.5,664.3,763.5z
		 M664.3,1634.2c-211.8,0-384.2-172.3-384.2-384.2s172.3-384.2,384.2-384.2s384.2,172.3,384.2,384.2S876.1,1634.2,664.3,1634.2z"/>
	<path fill="#F2CE54" d="M2448.8,983.4h-230.6c-24.7-37.6-54.6-72-89.2-101.9c-88.2-76.1-201-118-317.6-118
		c-174.2,0-327.2,92.1-413.2,230.1c-37.3-47.7-95.3-78.4-160.5-78.4c-34.1,0-67.9,8.6-97.7,24.9c-24.8,13.6-33.9,44.6-20.3,69.4
		s44.6,33.9,69.4,20.3c15-8.2,31.3-12.4,48.6-12.4c55.9,0,101.4,45.5,101.4,101.4c0,3.5,0.4,6.9,1,10.2
		c-9.9,38.7-15.2,79.3-15.2,121c0,268.2,218.2,486.5,486.5,486.5c201.4,0,384.4-126.6,455.4-315c10-26.4-3.4-55.9-29.8-65.9
		c-26.4-10-55.9,3.4-65.9,29.8c-56.1,148.8-200.6,248.7-359.6,248.7c-211.8,0-384.2-172.3-384.2-384.2s172.3-384.2,384.2-384.2
		c190.4,0,349.9,136.2,379.5,323.9c4.4,27.9,30.6,47,58.5,42.6s47-30.6,42.6-58.5c-4.7-30.2-12.4-59.7-22.7-88.2h179.5
		c28.2,0,51.2-22.9,51.2-51.2S2477.1,983.4,2448.8,983.4z"/>
</g>
</svg>
