<?xml version="1.0" encoding="utf-8"?>
<!-- Generator: Adobe Illustrator 18.0.0, SVG Export Plug-In . SVG Version: 6.00 Build 0)  -->
<!DOCTYPE svg PUBLIC "-//W3C//DTD SVG 1.1//EN" "http://www.w3.org/Graphics/SVG/1.1/DTD/svg11.dtd">
<svg version="1.1" id="Capa_1" xmlns="http://www.w3.org/2000/svg" xmlns:xlink="http://www.w3.org/1999/xlink" x="0px" y="0px"
	 viewBox="0 0 2500 2500" enable-background="new 0 0 2500 2500" xml:space="preserve">
<path fill="#4D4D4D" d="M2257.8,1239.9c-33.4,0-60.5,27.1-60.5,60.5v1078.5h-649.6v-677c0-33.4-27.1-60.5-60.5-60.5h-474.2
	c-33.4,0-60.5,27.1-60.5,60.5v536.8c0,33.4,27.1,60.5,60.5,60.5c33.4,0,60.5-27.1,60.5-60.5v-476.3h353.1v616.5H302.8V897.2
	L1250,138.1l969.9,777.3c26.1,20.9,64.2,16.7,85.1-9.4c20.9-26.1,16.7-64.2-9.4-85.1L1287.8,13.3c-22.1-17.7-53.6-17.7-75.7,0
	L204.4,820.9c-14.3,11.5-22.7,28.9-22.7,47.2v1571.3c0,33.4,27.1,60.5,60.5,60.5h2015.5c33.4,0,60.5-27.1,60.5-60.5v-1139
	C2318.3,1267,2291.2,1239.9,2257.8,1239.9z"/>
</svg>
