<?xml version="1.0" encoding="utf-8"?>
<!-- Generator: Adobe Illustrator 18.0.0, SVG Export Plug-In . SVG Version: 6.00 Build 0)  -->
<!DOCTYPE svg PUBLIC "-//W3C//DTD SVG 1.1//EN" "http://www.w3.org/Graphics/SVG/1.1/DTD/svg11.dtd">
<svg version="1.1" id="Capa_1" xmlns="http://www.w3.org/2000/svg" xmlns:xlink="http://www.w3.org/1999/xlink" x="0px" y="0px"
	 viewBox="0 0 2500 2500" enable-background="new 0 0 2500 2500" xml:space="preserve">
<path fill="#F2CE54" d="M2134,366c-487.4-487.4-1280.5-487.4-1767.9,0c-171,171-288,385.9-338.3,621.3
	c-49,229.3-32.9,466.8,46.4,686.9c9.5,26.4,38.7,40.1,65.1,30.6s40.1-38.7,30.6-65.1c-72.9-202.2-87.6-420.5-42.6-631.2
	C173.5,792.4,280.9,595.1,438,438C885.8-9.8,1614.3-9.8,2062,438c213.2,213.2,332.6,496.7,336.1,798.1
	c3.5,300.9-108.6,586.6-315.7,804.5c-2.5,2.6-4.9,5.2-7.3,7.8c-4.3,4.6-8.6,9.2-13.1,13.7c-447.8,447.8-1176.3,447.8-1624,0
	c-2.4-2.4-4.7-4.8-7-7.2c-0.1-4.7-0.2-9.3-0.2-13.9c0-10.2,0.2-20.4,0.6-30.6c0.1-3.4,0.4-6.8,0.6-10.2c0.3-6.8,0.6-13.5,1.1-20.2
	c0.3-4,0.7-8,1.1-12c0.5-6.1,1-12.1,1.7-18.2c0.5-4.3,1.1-8.5,1.6-12.7c0.7-5.7,1.4-11.5,2.3-17.2c0.6-4.3,1.4-8.6,2.1-13
	c0.9-5.6,1.8-11.1,2.8-16.6c0.8-4.4,1.7-8.7,2.6-13c1.1-5.4,2.2-10.8,3.4-16.2c1-4.4,2.1-8.7,3.1-13.1c1.3-5.3,2.5-10.6,3.9-15.9
	c1.1-4.4,2.4-8.7,3.6-13c1.5-5.2,2.9-10.4,4.4-15.5c1.3-4.3,2.7-8.6,4.1-12.9c1.6-5.1,3.3-10.2,5-15.3c1.5-4.3,3-8.5,4.5-12.7
	c1.8-5,3.6-10,5.5-15c1.6-4.2,3.3-8.4,5-12.6c2-4.9,4-9.9,6-14.7c1.8-4.2,3.6-8.3,5.4-12.4c2.1-4.8,4.3-9.7,6.6-14.5
	c1.9-4.1,3.9-8.1,5.8-12.2c2.3-4.8,4.7-9.5,7.1-14.2c2-4,4.1-8,6.2-11.9c2.5-4.7,5-9.3,7.6-14c2.2-3.9,4.4-7.8,6.6-11.6
	c2.7-4.6,5.4-9.1,8.1-13.7c2.3-3.8,4.7-7.6,7-11.4c2.8-4.5,5.7-9,8.6-13.4c2.4-3.7,4.9-7.4,7.4-11.1c3-4.4,6.1-8.8,9.1-13.1
	c2.6-3.6,5.1-7.2,7.8-10.8c3.2-4.3,6.4-8.6,9.6-12.8c2.7-3.5,5.4-7,8.1-10.5c3.3-4.2,6.7-8.4,10.2-12.5c2.8-3.4,5.6-6.8,8.4-10.1
	c3.5-4.1,7.1-8.2,10.7-12.2c2.9-3.3,5.8-6.6,8.7-9.8c3.7-4,7.4-8,11.2-11.9c3-3.2,6-6.3,9-9.4c3.9-3.9,7.8-7.8,11.7-11.6
	c3.1-3,6.1-6.1,9.3-9c4.1-3.8,8.2-7.6,12.3-11.3c3.2-2.9,6.3-5.7,9.5-8.6c4.3-3.8,8.6-7.4,13-11.1c3.2-2.7,6.3-5.4,9.6-8.1
	c4.5-3.7,9.1-7.3,13.7-10.8c3.2-2.5,6.4-5.1,9.6-7.5c4.8-3.7,9.8-7.2,14.7-10.8c3.1-2.3,6.2-4.6,9.3-6.8c5.4-3.8,11-7.5,16.6-11.2
	c2.7-1.8,5.4-3.7,8.2-5.5c7.2-4.7,14.6-9.3,22-13.8c1.2-0.7,2.3-1.4,3.4-2.1c8.6-5.1,17.3-10.1,26.1-15c3-1.7,6.1-3.2,9.1-4.8
	c5.8-3.1,11.7-6.3,17.6-9.3c3.8-1.9,7.7-3.7,11.5-5.6c4.9-2.3,9.7-4.7,14.6-7c92.2,88.1,215.2,138,342.9,138s250.7-49.9,342.9-138
	c180,83.3,327.4,232.8,407.4,414.6c11.3,25.7,41.3,37.4,67.1,26.1c25.7-11.3,37.4-41.3,26.1-67.1
	c-87.5-198.9-239.8-357.8-432.6-453.7c55.9-82.1,86.2-179,86.2-279c0-274-223-497-497-497c-28.1,0-50.9,22.8-50.9,50.9
	s22.8,50.9,50.9,50.9c217.9,0,395.2,177.3,395.2,395.2c0,97.5-36.2,191.3-102,264.2l0,0c-75.1,83.3-182,131-293.3,131
	s-218.2-47.8-293.3-131l0,0c-65.7-72.9-102-166.8-102-264.2c0-106.4,41.6-206.2,117.3-281c20-19.8,20.1-52,0.4-72
	c-19.8-20-52-20.1-72-0.4C805.4,678.6,753,804.1,753,937.8c0,99.9,30.2,196.7,86,278.7c-0.5,0.2-1,0.5-1.5,0.8
	c-4,2-7.8,4.1-11.8,6.1c-6,3.1-12.1,6.2-18,9.5c-4.2,2.3-8.3,4.7-12.5,7c-5.6,3.1-11.1,6.3-16.6,9.5c-4.2,2.5-8.4,5.1-12.6,7.7
	c-5.3,3.2-10.5,6.5-15.7,9.8c-4.2,2.7-8.4,5.5-12.6,8.3c-5,3.3-10,6.7-15,10.2c-4.2,2.9-8.3,5.9-12.4,8.8c-4.8,3.5-9.7,7-14.4,10.6
	c-4.1,3.1-8.1,6.2-12.1,9.3c-4.7,3.6-9.3,7.3-13.9,11c-4,3.2-7.9,6.5-11.8,9.7c-4.5,3.8-9,7.6-13.4,11.4c-3.8,3.3-7.7,6.7-11.4,10.1
	c-4.4,3.9-8.7,7.9-13,11.9c-3.7,3.5-7.4,6.9-11,10.4c-4.2,4.1-8.4,8.2-12.6,12.4c-3.5,3.6-7.1,7.1-10.6,10.7
	c-4.1,4.3-8.1,8.6-12.2,12.9c-3.4,3.6-6.8,7.2-10.1,10.9c-4,4.5-7.9,9-11.9,13.6c-3.2,3.7-6.4,7.3-9.5,11c-4,4.8-7.9,9.6-11.8,14.5
	c-2.9,3.6-5.8,7.2-8.7,10.8c-4.1,5.3-8,10.6-12,16c-2.5,3.4-5.1,6.7-7.5,10c-5,7-9.9,14-14.7,21.1c-1.3,1.9-2.6,3.7-3.9,5.6
	c-6,9-11.8,18-17.5,27.2c-2,3.2-3.8,6.4-5.7,9.6c-3.7,6.1-7.4,12.2-10.9,18.4c-2.2,3.9-4.3,7.8-6.4,11.7c-3.1,5.6-6.2,11.2-9.2,16.8
	c-2.2,4.2-4.3,8.4-6.4,12.7c-2.8,5.5-5.5,10.9-8.2,16.4c-2.1,4.4-4.1,8.8-6.2,13.3c-2.5,5.5-5,10.9-7.4,16.4
	c-2,4.5-3.9,9.1-5.8,13.7c-2.3,5.5-4.6,11-6.8,16.5c-1.8,4.6-3.6,9.3-5.4,14c-2.1,5.5-4.1,11.1-6.1,16.7c-1.7,4.7-3.3,9.5-4.9,14.3
	c-1.9,5.6-3.7,11.2-5.5,16.9c-1.5,4.8-3,9.6-4.4,14.5c-1.7,5.7-3.3,11.4-4.9,17.2c-1.3,4.9-2.7,9.7-3.9,14.6
	c-1.5,5.8-2.9,11.6-4.3,17.5c-1.2,4.9-2.3,9.8-3.4,14.7c-1.3,5.9-2.5,11.9-3.7,17.9c-1,4.9-2,9.8-2.9,14.7
	c-1.1,6.1-2.1,12.2-3.1,18.3c-0.8,4.8-1.6,9.7-2.3,14.5c-0.9,6.3-1.7,12.7-2.5,19c-0.6,4.7-1.2,9.4-1.7,14.2
	c-0.7,6.7-1.3,13.4-1.9,20.1c-0.4,4.5-0.9,8.9-1.2,13.4c-0.5,7.5-0.9,15-1.3,22.5c-0.2,3.7-0.5,7.5-0.6,11.2
	c-0.4,11.3-0.6,22.6-0.6,34c0,12.3,0.4,23.9,0.9,36.7c0.1,3,0.5,5.9,1.1,8.7c0.1,0.2,0.1,0.4,0.1,0.7c0.6,2.8,1.5,5.4,2.6,8
	c0.1,0.3,0.2,0.5,0.3,0.8c1.1,2.5,2.4,5,3.9,7.3c0.2,0.3,0.4,0.6,0.6,0.9c1.5,2.3,3.2,4.4,5,6.4c0.1,0.1,0.2,0.3,0.4,0.5l6.7,7.1
	c5.1,5.4,10.1,10.8,15.4,16.1c243.7,243.7,563.8,365.6,884,365.6s640.3-121.9,884-365.6c5.3-5.3,10.4-10.7,15.4-16.1l6.7-7.1
	c225.5-237.2,347.6-548.2,343.7-875.8C2496.1,906.7,2366.2,598.2,2134,366z"/>
</svg>
