<?xml version="1.0" encoding="utf-8"?>
<!-- Generator: Adobe Illustrator 18.0.0, SVG Export Plug-In . SVG Version: 6.00 Build 0)  -->
<!DOCTYPE svg PUBLIC "-//W3C//DTD SVG 1.1//EN" "http://www.w3.org/Graphics/SVG/1.1/DTD/svg11.dtd">
<svg version="1.1" id="Warstwa_1" xmlns="http://www.w3.org/2000/svg" xmlns:xlink="http://www.w3.org/1999/xlink" x="0px" y="0px"
	 viewBox="44.3 18.8 49.9 49.4" enable-background="new 44.3 18.8 49.9 49.4" xml:space="preserve">
<path d="M90.1,43.8c0-2.2-0.3-4.2-0.9-6.2l-9.3,24.1C86,58.1,90.1,51.4,90.1,43.8L90.1,43.8z"/>
<path d="M62.7,63.5c2.1,0.7,4.3,1.1,6.6,1.1c2.4,0,4.7-0.4,6.9-1.2l-6.3-16.5L62.7,63.5L62.7,63.5z"/>
<path d="M49.4,37.9c-0.5,1.9-0.9,3.8-0.9,5.9c0,7.8,4.3,14.6,10.6,18.1L49.4,38L49.4,37.9L49.4,37.9z"/>
<path d="M60,36.6l-0.9,0c-1.9,0-1.7,2-1.7,2l6.9,17.3l4.6-11.1l-2.6-6.6c-1-1.7-3.6-1.7-3.6-1.7v-0.9h14.5l0,1l-1.5,0.1
	c-1.9,0-1.5,1.8-1.5,1.8l6.3,16.8l1.8-4.7c3.2-7.3,1.2-12.7,1.2-12.7c-3.2-6.6,0.8-7.6,0.8-7.6c0.3,0,0.5-0.1,0.7-0.1
	c-3.8-4.5-9.5-7.3-15.8-7.3c-8.6,0-15.9,5.2-19.1,12.6l9.7-0.1L60,36.6L60,36.6z"/>
<path d="M92.7,43.7c0,12.9-10.5,23.4-23.4,23.4S45.9,56.6,45.9,43.7s10.5-23.4,23.4-23.4C82.2,20.3,92.7,30.8,92.7,43.7z M69.3,19.3
	c-13.5,0-24.4,11-24.4,24.4s11,24.4,24.4,24.4c13.5,0,24.4-11,24.4-24.4C93.7,30.2,82.8,19.3,69.3,19.3z"/>
</svg>
